<svg width="52" height="52" viewBox="0 0 52 52" fill="none" xmlns="http://www.w3.org/2000/svg">
<circle cx="26" cy="26" r="26" fill="#F5F7FA"/>
<path fill-rule="evenodd" clip-rule="evenodd" d="M44.7082 44.0558C39.9799 48.9539 33.3457 52.0002 26 52.0002C18.6543 52.0002 12.0201 48.9539 7.29175 44.0558C12.0201 39.1576 18.6543 36.1113 26 36.1113C33.3457 36.1113 39.9799 39.1576 44.7082 44.0558Z" fill="#DFE3E6"/>
<path d="M26 32.2596C32.6479 32.2596 38.0371 26.8704 38.0371 20.2226C38.0371 13.5747 32.6479 8.18555 26 8.18555C19.3522 8.18555 13.963 13.5747 13.963 20.2226C13.963 26.8704 19.3522 32.2596 26 32.2596Z" fill="#DFE3E6"/>
<path d="M21.787 16.6119C21.4546 16.6119 21.1852 16.3424 21.1852 16.0101C21.1852 15.6777 21.4546 15.4082 21.787 15.4082C22.1194 15.4082 22.3889 15.6777 22.3889 16.0101C22.3889 16.3424 22.1194 16.6119 21.787 16.6119Z" fill="#F5F7FA" stroke="#F5F7FA" stroke-width="2.16667" stroke-linecap="round" stroke-linejoin="round"/>
<path d="M30.2129 16.6119C29.8806 16.6119 29.6111 16.3424 29.6111 16.0101C29.6111 15.6777 29.8806 15.4082 30.2129 15.4082C30.5453 15.4082 30.8148 15.6777 30.8148 16.0101C30.8148 16.3424 30.5453 16.6119 30.2129 16.6119Z" fill="#F5F7FA" stroke="#F5F7FA" stroke-width="2.16667" stroke-linecap="round" stroke-linejoin="round"/>
<path d="M25.9999 26.2406C24.6703 26.2406 23.5925 25.1628 23.5925 23.8332C23.5925 22.5036 24.6703 21.4258 25.9999 21.4258C27.3295 21.4258 28.4073 22.5036 28.4073 23.8332C28.4073 25.1628 27.3295 26.2406 25.9999 26.2406Z" fill="#F5F7FA" stroke="#F5F7FA" stroke-width="2.16667" stroke-linecap="round" stroke-linejoin="round"/>
</svg>
