<svg width="20" height="21" viewBox="0 0 20 21" fill="none" xmlns="http://www.w3.org/2000/svg">
<g id="Frame">
<path id="Vector" d="M10.0007 10.4329C10.2307 10.4329 10.4173 10.2464 10.4173 10.0163C10.4173 9.78619 10.2307 9.59961 10.0007 9.59961C9.77057 9.59961 9.58398 9.78619 9.58398 10.0163C9.58398 10.2464 9.77057 10.4329 10.0007 10.4329Z" fill="#797C80" stroke="#797C80" stroke-width="1.5" stroke-linecap="round" stroke-linejoin="round"/>
<path id="Vector_2" d="M10.0007 17.0999C10.2307 17.0999 10.4173 16.9134 10.4173 16.6833C10.4173 16.4532 10.2307 16.2666 10.0007 16.2666C9.77057 16.2666 9.58398 16.4532 9.58398 16.6833C9.58398 16.9134 9.77057 17.0999 10.0007 17.0999Z" fill="#797C80" stroke="#797C80" stroke-width="1.5" stroke-linecap="round" stroke-linejoin="round"/>
<path id="Vector_3" d="M10.0007 3.76693C10.2307 3.76693 10.4173 3.58038 10.4173 3.35026C10.4173 3.12014 10.2307 2.93359 10.0007 2.93359C9.77057 2.93359 9.58398 3.12014 9.58398 3.35026C9.58398 3.58038 9.77057 3.76693 10.0007 3.76693Z" fill="#797C80" stroke="#797C80" stroke-width="1.5" stroke-linecap="round" stroke-linejoin="round"/>
</g>
</svg>
