<svg width="49" height="48" viewBox="0 0 49 48" fill="none" xmlns="http://www.w3.org/2000/svg">
<circle cx="24.5" cy="24" r="24" fill="white"/>
<path d="M36.2663 21.6481H35.3003V21.6001H24.5002V26.4002H31.2802C30.2902 29.1962 27.6322 31.2003 24.5002 31.2003C20.5221 31.2003 17.3001 27.9782 17.3001 24.0002C17.3001 20.0221 20.5221 16.8001 24.5002 16.8001C26.3362 16.8001 28.0042 17.4901 29.2762 18.6241L32.6723 15.228C30.5302 13.23 27.6622 12 24.5002 12C17.8701 12 12.5 17.3701 12.5 24.0002C12.5 30.6302 17.8701 36.0003 24.5002 36.0003C31.1302 36.0003 36.5003 30.6242 36.5003 24.0002C36.5003 23.1961 36.4163 22.4101 36.2663 21.6481Z" fill="#FAB409"/>
<path d="M13.8828 18.4141L17.8249 21.3061C18.8929 18.6661 21.4729 16.8001 24.497 16.8001C26.333 16.8001 28.001 17.4901 29.273 18.6241L32.6691 15.228C30.527 13.23 27.659 12 24.497 12C19.8889 12 15.8928 14.604 13.8828 18.4141Z" fill="#E73B2F"/>
<path d="M24.5005 36.0037C27.6025 36.0037 30.4165 34.8157 32.5466 32.8897L28.8325 29.7456C27.6265 30.6576 26.1325 31.2037 24.5005 31.2037C21.3804 31.2037 18.7284 29.2116 17.7324 26.4336L13.8203 29.4516C15.8063 33.3397 19.8384 36.0037 24.5005 36.0037Z" fill="#2E9E49"/>
<path d="M36.2662 21.6496H35.3001V21.6016H24.5V26.4016H31.2801C30.8061 27.7456 29.9421 28.9037 28.8261 29.7437L32.5401 32.8877C32.2761 33.1277 36.4942 30.0017 36.4942 24.0016C36.4942 23.1976 36.4102 22.4116 36.2602 21.6496H36.2662Z" fill="#3A7AF2"/>
</svg>
