<svg width="32" height="32" viewBox="0 0 32 32" fill="none" xmlns="http://www.w3.org/2000/svg">
<g id="ic-arrow">
<path id="Vector" fill-rule="evenodd" clip-rule="evenodd" d="M15.9993 1.66675C8.08327 1.66675 1.66602 8.084 1.66602 16.0001C1.66602 23.9162 8.08327 30.3334 15.9993 30.3334C23.9155 30.3334 30.3327 23.9162 30.3327 16.0001C30.3327 8.084 23.9155 1.66675 15.9993 1.66675ZM21.3731 14.6263L16.7064 9.95964C16.3159 9.56912 15.6828 9.56912 15.2923 9.95964L10.6256 14.6263C10.2351 15.0169 10.2351 15.6499 10.6256 16.0405C11.0161 16.431 11.6493 16.431 12.0398 16.0405L14.9993 13.081V21.3334C14.9993 21.8857 15.4471 22.3334 15.9993 22.3334C16.5516 22.3334 16.9993 21.8857 16.9993 21.3334V13.081L19.959 16.0405C20.3495 16.431 20.9825 16.431 21.3731 16.0405C21.7636 15.6499 21.7636 15.0169 21.3731 14.6263Z" fill="#45484D"/>
</g>
</svg>
