<svg width="11" height="10" viewBox="0 0 11 10" fill="none" xmlns="http://www.w3.org/2000/svg">
<g id="ic-location" clip-path="url(#clip0_1111_9613)">
<path id="Vector" d="M8.35417 4.17183C8.35417 5.68467 6.10316 8.08762 5.30076 8.89612C5.14477 9.05329 4.89689 9.05329 4.74091 8.89613C3.93851 8.08762 1.6875 5.68467 1.6875 4.17183C1.6875 2.33088 3.17988 0.838501 5.02083 0.838501C6.86179 0.838501 8.35417 2.33088 8.35417 4.17183Z" fill="#45484D" stroke="#45484D" stroke-width="0.833333"/>
<path id="Vector_2" d="M5.02214 4.58852C5.25226 4.58852 5.4388 4.40198 5.4388 4.17185C5.4388 3.94174 5.25226 3.75519 5.02214 3.75519C4.79201 3.75519 4.60547 3.94174 4.60547 4.17185C4.60547 4.40198 4.79201 4.58852 5.02214 4.58852Z" fill="#F5F7FA" stroke="#F5F7FA" stroke-width="1.66667" stroke-linecap="round" stroke-linejoin="round"/>
</g>
<defs>
<clipPath id="clip0_1111_9613">
<rect width="10" height="10" fill="white" transform="translate(0.0214844 0.00518799)"/>
</clipPath>
</defs>
</svg>
