<svg width="37" height="29" viewBox="0 0 37 29" fill="none" xmlns="http://www.w3.org/2000/svg">
<g id="Group">
<g id="Group_2">
<path id="Vector" d="M0.5 7.20312V23.7441C0.5 24.8951 0.916 25.9381 1.584 26.7721L13.031 17.6471L0.5 7.20312Z" fill="#D0D5DA"/>
<path id="Vector_2" d="M35.4167 26.7711C36.0848 25.9381 36.5007 24.8941 36.5007 23.7431V7.20312L23.9688 17.6461L35.4167 26.7711Z" fill="#D0D5DA"/>
</g>
<path id="Vector_3" d="M15.188 17.3231L0.5 7.20312L13.032 17.6461L15.188 19.4431C17.182 20.9891 19.818 20.9891 21.813 19.4431L23.969 17.6461L36.501 7.20312L21.813 17.3231C19.819 18.6971 17.183 18.6971 15.188 17.3231Z" fill="#AFB7C0"/>
<g id="Group_3">
<path id="Vector_4" d="M21.8139 19.443C19.8199 20.989 17.1839 20.989 15.1889 19.443L13.0329 17.646L1.58594 26.771C2.47794 27.882 3.83094 28.608 5.36594 28.608H31.6359C33.1719 28.608 34.5249 27.882 35.4159 26.771L23.9689 17.646L21.8139 19.443Z" fill="#E5E9EE"/>
<path id="Vector_5" d="M31.5 0.39209H5.5C2.739 0.39209 0.5 2.63109 0.5 5.39209V7.20309L15.188 17.3231C17.182 18.6971 19.818 18.6971 21.813 17.3231L36.501 7.20309V5.39209C36.501 2.63109 34.261 0.39209 31.5 0.39209Z" fill="#E5E9EE"/>
</g>
</g>
</svg>
