<svg width="20" height="20" viewBox="0 0 20 20" fill="none" xmlns="http://www.w3.org/2000/svg">
<g id="ic-xmark">
<path id="Vector" d="M6.84662 6.84749L6.84661 6.84751C6.40728 7.28685 6.40727 7.99915 6.84661 8.43849L7.17297 8.11213L6.84661 8.43849L8.40816 10L6.84661 11.5615L6.84661 11.5616C6.40728 12.0009 6.40728 12.7132 6.84661 13.1526L6.84661 13.1526C7.28595 13.5919 7.99827 13.5919 8.43761 13.1526L9.9991 11.591L11.5606 13.1526C12 13.5919 12.7123 13.5919 13.1517 13.1526C13.591 12.7132 13.591 12.0009 13.1517 11.5616L11.5901 10L13.1516 8.4385C13.591 7.99915 13.591 7.28684 13.1517 6.8475L13.1516 6.84749C12.7123 6.40817 12 6.40817 11.5606 6.84749L11.887 7.17386L11.5606 6.8475L9.9991 8.409L8.4376 6.8475C7.99826 6.40816 7.28596 6.40817 6.84662 6.84749ZM1.54102 10C1.54102 5.32861 5.32794 1.54169 9.99935 1.54169C14.6708 1.54169 18.4577 5.32861 18.4577 10C18.4577 14.6715 14.6708 18.4584 9.99935 18.4584C5.32794 18.4584 1.54102 14.6715 1.54102 10Z" fill="#797C80" stroke="#797C80"/>
</g>
</svg>
