<svg width="49" height="49" viewBox="0 0 49 49" fill="none" xmlns="http://www.w3.org/2000/svg">
<g id="&#236;&#185;&#180;&#236;&#185;&#180;&#236;&#152;&#164;&#237;&#134;&#161;">
<path id="&#237;&#131;&#128;&#236;&#155;&#144; 635-13" d="M24.5 48.5C37.7548 48.5 48.5 37.7548 48.5 24.5C48.5 11.2452 37.7548 0.5 24.5 0.5C11.2452 0.5 0.5 11.2452 0.5 24.5C0.5 37.7548 11.2452 48.5 24.5 48.5Z" fill="#F9DB00"/>
<path id="&#237;&#140;&#168;&#236;&#138;&#164; 10555-3" d="M24.5026 12.7734C17.8765 12.7734 12.4922 17.3647 12.4922 23.0204C12.607 26.6621 14.6939 29.9595 17.9496 31.6082L16.8226 36.6482L22.2383 33.09C22.9896 33.2152 23.7409 33.2778 24.5026 33.2778C31.1287 33.2778 36.5131 28.6865 36.5131 23.0308C36.5131 17.3752 31.1391 12.7839 24.5026 12.7839" fill="#3E1918"/>
</g>
</svg>
