<svg width="101" height="100" viewBox="0 0 101 100" fill="none" xmlns="http://www.w3.org/2000/svg">
<g id="&#240;&#159;&#154;&#168; &#236;&#130;&#172;&#236;&#157;&#180;&#235;&#160;&#140;">
<path id="Vector" d="M86.6731 46.3952C86.6731 26.4177 70.4781 10.2227 50.5006 10.2227C30.5231 10.2227 14.3281 26.4177 14.3281 46.3952V85.8551H86.6756L86.6731 46.3952Z" fill="#FA505B"/>
<path id="Vector_2" d="M73.8299 46.9799C73.8299 34.0949 63.3849 23.6499 50.4999 23.6499C37.6149 23.6499 27.1699 34.0949 27.1699 46.9799V75.6549H73.8324L73.8299 46.9799Z" fill="#FF5F6B"/>
<path id="Vector_3" d="M50.5009 38.4302C53.1809 38.4302 55.3559 40.6052 55.3559 43.2852V77.0727H45.6484V43.2852C45.6484 40.6052 47.8209 38.4302 50.5009 38.4302Z" fill="#FF8D95"/>
<path id="Vector_4" d="M90.335 75.5425H10.665C9.19316 75.5425 8 76.7356 8 78.2075V87.1125C8 88.5843 9.19316 89.7775 10.665 89.7775H90.335C91.8068 89.7775 93 88.5843 93 87.1125V78.2075C93 76.7356 91.8068 75.5425 90.335 75.5425Z" fill="#45484D"/>
</g>
</svg>
