<svg width="100" height="100" viewBox="0 0 100 100" fill="none" xmlns="http://www.w3.org/2000/svg">
<g id="&#240;&#159;&#150;&#144;&#240;&#159;&#143;&#187; &#236;&#171;&#153; &#237;&#142;&#184; &#236;&#134;&#144;&#235;&#176;&#148;&#235;&#139;&#165;: &#237;&#149;&#152;&#236;&#150;&#128; &#237;&#148;&#188;&#235;&#182;&#128;" clip-path="url(#clip0_1069_31528)">
<path id="Vector" d="M93.6983 49.925C90.7733 47 86.0333 47 83.1108 49.925L73.3733 56.855V46.7175L74.3808 17.8625V17.8575C74.5058 14.2575 71.7533 11.2375 68.2308 11.115C64.7083 10.9925 61.7508 13.8125 61.6258 17.4125L60.7583 42.24H57.5283L56.5258 13.5025C56.4008 9.90252 53.4433 7.08252 49.9208 7.20502C46.3983 7.32752 43.6458 10.3475 43.7708 13.9475L44.7633 42.405L41.9658 43.13L37.6758 18.8025C37.0633 15.325 33.7508 13.0025 30.2808 13.615C26.8108 14.2275 24.4933 17.5425 25.1058 21.02L29.5708 46.3475L26.1458 47.2375L21.6983 29.3975C20.8233 25.89 17.3433 23.74 13.9233 24.5925C10.5033 25.445 8.44083 28.98 9.31333 32.4875L17.6783 66.04L17.7383 66.0175C19.8533 81.1475 32.8108 92.8025 48.5258 92.8025C57.1208 92.8025 64.9033 89.3175 70.5358 83.685L93.7033 60.5175C96.6283 57.5925 96.6283 52.8525 93.7033 49.9275L93.6983 49.925Z" fill="#FFCCA8"/>
<path id="Vector_2" d="M69.4152 58.8252H62.6602C57.1377 58.8252 52.6602 63.3027 52.6602 68.8252V71.6102C57.0527 66.0527 62.7927 61.6102 69.4152 58.8252Z" fill="#E68E51"/>
</g>
<defs>
<clipPath id="clip0_1069_31528">
<rect width="100" height="100" fill="white"/>
</clipPath>
</defs>
</svg>
