<svg width="20" height="21" viewBox="0 0 20 21" fill="none" xmlns="http://www.w3.org/2000/svg">
<g id="Frame">
<path id="Vector" d="M10.0007 10.9294C10.2307 10.9294 10.4173 10.7428 10.4173 10.5127C10.4173 10.2827 10.2307 10.0961 10.0007 10.0961C9.77057 10.0961 9.58398 10.2827 9.58398 10.5127C9.58398 10.7428 9.77057 10.9294 10.0007 10.9294Z" fill="#797C80" stroke="#797C80" stroke-width="1.5" stroke-linecap="round" stroke-linejoin="round"/>
<path id="Vector_2" d="M10.0007 17.5964C10.2307 17.5964 10.4173 17.4098 10.4173 17.1797C10.4173 16.9496 10.2307 16.7631 10.0007 16.7631C9.77057 16.7631 9.58398 16.9496 9.58398 17.1797C9.58398 17.4098 9.77057 17.5964 10.0007 17.5964Z" fill="#797C80" stroke="#797C80" stroke-width="1.5" stroke-linecap="round" stroke-linejoin="round"/>
<path id="Vector_3" d="M10.0007 4.26339C10.2307 4.26339 10.4173 4.07684 10.4173 3.84672C10.4173 3.6166 10.2307 3.43005 10.0007 3.43005C9.77057 3.43005 9.58398 3.6166 9.58398 3.84672C9.58398 4.07684 9.77057 4.26339 10.0007 4.26339Z" fill="#797C80" stroke="#797C80" stroke-width="1.5" stroke-linecap="round" stroke-linejoin="round"/>
</g>
</svg>
