<svg width="41" height="41" viewBox="0 0 41 41" fill="none" xmlns="http://www.w3.org/2000/svg">
<g id="&#226;&#154;&#160;&#239;&#184;&#143; &#236;&#163;&#188;&#236;&#157;&#152;" clip-path="url(#clip0_957_28110)">
<path id="Vector" d="M17.2259 7.13194L3.31088 31.2339C1.85588 33.7539 3.67488 36.9039 6.58488 36.9039H34.4159C37.3259 36.9039 39.1439 33.7539 37.6899 31.2339L23.7739 7.13194C22.3189 4.61194 18.6809 4.61194 17.2259 7.13194Z" fill="#FFE1E0"/>
<g id="Group">
<path id="Vector_2" d="M20.4994 28.0469C19.4554 28.0469 18.6094 28.8929 18.6094 29.9369C18.6094 30.9809 19.4554 31.8269 20.4994 31.8269C21.5434 31.8269 22.3894 30.9809 22.3894 29.9369C22.3894 28.8929 21.5434 28.0469 20.4994 28.0469Z" fill="#FA505B"/>
<path id="Vector_3" d="M20.4984 25.5779C19.6144 25.5779 18.8984 24.8619 18.8984 23.9779V16.1029C18.8984 15.2189 19.6144 14.5029 20.4984 14.5029C21.3824 14.5029 22.0984 15.2189 22.0984 16.1029V23.9779C22.0984 24.8619 21.3824 25.5779 20.4984 25.5779Z" fill="#FA505B"/>
</g>
</g>
<defs>
<clipPath id="clip0_957_28110">
<rect width="40" height="40" fill="white" transform="translate(0.5 0.5)"/>
</clipPath>
</defs>
</svg>
