<svg width="111" height="24" viewBox="0 0 111 24" fill="none" xmlns="http://www.w3.org/2000/svg">
<path d="M11.512 1.7H15.4V18.5H11.512V1.7ZM3.88 18.5H-0.0079999V1.7H3.88V18.5ZM11.8 11.612H3.592V8.324H11.8V11.612ZM24.5588 18.692C23.0868 18.692 21.7908 18.404 20.6708 17.828C19.5668 17.252 18.7108 16.468 18.1028 15.476C17.4948 14.468 17.1908 13.324 17.1908 12.044C17.1908 10.748 17.4868 9.604 18.0788 8.612C18.6868 7.604 19.5108 6.82 20.5508 6.26C21.5908 5.684 22.7668 5.396 24.0788 5.396C25.3428 5.396 26.4788 5.668 27.4868 6.212C28.5108 6.74 29.3188 7.508 29.9108 8.516C30.5028 9.508 30.7988 10.7 30.7988 12.092C30.7988 12.236 30.7908 12.404 30.7748 12.596C30.7588 12.772 30.7428 12.94 30.7268 13.1H20.2388V10.916H28.7588L27.3188 11.564C27.3188 10.892 27.1828 10.308 26.9108 9.812C26.6388 9.316 26.2628 8.932 25.7828 8.66C25.3028 8.372 24.7428 8.228 24.1028 8.228C23.4628 8.228 22.8948 8.372 22.3988 8.66C21.9188 8.932 21.5428 9.324 21.2708 9.836C20.9988 10.332 20.8628 10.924 20.8628 11.612V12.188C20.8628 12.892 21.0148 13.516 21.3188 14.06C21.6388 14.588 22.0788 14.996 22.6388 15.284C23.2148 15.556 23.8868 15.692 24.6548 15.692C25.3428 15.692 25.9428 15.588 26.4548 15.38C26.9828 15.172 27.4628 14.86 27.8948 14.444L29.8868 16.604C29.2948 17.276 28.5508 17.796 27.6548 18.164C26.7588 18.516 25.7268 18.692 24.5588 18.692ZM33.7291 23.348C33.0571 23.348 32.3931 23.244 31.7371 23.036C31.0811 22.828 30.5451 22.54 30.1291 22.172L31.4971 19.508C31.7851 19.764 32.1131 19.964 32.4811 20.108C32.8651 20.252 33.2411 20.324 33.6091 20.324C34.1371 20.324 34.5531 20.196 34.8571 19.94C35.1771 19.7 35.4651 19.292 35.7211 18.716L36.3931 17.132L36.6811 16.724L41.3131 5.588H44.9131L39.0811 19.292C38.6651 20.332 38.1851 21.148 37.6411 21.74C37.1131 22.332 36.5211 22.748 35.8651 22.988C35.2251 23.228 34.5131 23.348 33.7291 23.348ZM35.9371 19.004L30.1771 5.588H34.0411L38.5051 16.388L35.9371 19.004ZM45.7448 12.668L45.0008 1.7H49.4648L48.7208 12.668H45.7448ZM47.2328 18.692C46.5608 18.692 46.0088 18.476 45.5768 18.044C45.1448 17.612 44.9288 17.1 44.9288 16.508C44.9288 15.9 45.1448 15.396 45.5768 14.996C46.0088 14.58 46.5608 14.372 47.2328 14.372C47.9208 14.372 48.4728 14.58 48.8888 14.996C49.3208 15.396 49.5368 15.9 49.5368 16.508C49.5368 17.1 49.3208 17.612 48.8888 18.044C48.4728 18.476 47.9208 18.692 47.2328 18.692ZM51.7223 18.5V1.7H55.6103V15.332H64.0343V18.5H51.7223ZM71.0564 18.692C69.6804 18.692 68.4564 18.404 67.3844 17.828C66.3284 17.252 65.4884 16.468 64.8644 15.476C64.2564 14.468 63.9524 13.324 63.9524 12.044C63.9524 10.748 64.2564 9.604 64.8644 8.612C65.4884 7.604 66.3284 6.82 67.3844 6.26C68.4564 5.684 69.6804 5.396 71.0564 5.396C72.4164 5.396 73.6324 5.684 74.7044 6.26C75.7764 6.82 76.6164 7.596 77.2244 8.588C77.8324 9.58 78.1364 10.732 78.1364 12.044C78.1364 13.324 77.8324 14.468 77.2244 15.476C76.6164 16.468 75.7764 17.252 74.7044 17.828C73.6324 18.404 72.4164 18.692 71.0564 18.692ZM71.0564 15.62C71.6804 15.62 72.2404 15.476 72.7364 15.188C73.2324 14.9 73.6244 14.492 73.9124 13.964C74.2004 13.42 74.3444 12.78 74.3444 12.044C74.3444 11.292 74.2004 10.652 73.9124 10.124C73.6244 9.596 73.2324 9.188 72.7364 8.9C72.2404 8.612 71.6804 8.468 71.0564 8.468C70.4324 8.468 69.8724 8.612 69.3764 8.9C68.8804 9.188 68.4804 9.596 68.1764 10.124C67.8884 10.652 67.7444 11.292 67.7444 12.044C67.7444 12.78 67.8884 13.42 68.1764 13.964C68.4804 14.492 68.8804 14.9 69.3764 15.188C69.8724 15.476 70.4324 15.62 71.0564 15.62ZM85.9189 18.692C84.5269 18.692 83.2869 18.412 82.1989 17.852C81.1109 17.276 80.2549 16.484 79.6309 15.476C79.0229 14.468 78.7189 13.324 78.7189 12.044C78.7189 10.748 79.0229 9.604 79.6309 8.612C80.2549 7.604 81.1109 6.82 82.1989 6.26C83.2869 5.684 84.5269 5.396 85.9189 5.396C87.2789 5.396 88.4629 5.684 89.4709 6.26C90.4789 6.82 91.2229 7.628 91.7029 8.684L88.7989 10.244C88.4629 9.636 88.0389 9.188 87.5269 8.9C87.0309 8.612 86.4869 8.468 85.8949 8.468C85.2549 8.468 84.6789 8.612 84.1669 8.9C83.6549 9.188 83.2469 9.596 82.9429 10.124C82.6549 10.652 82.5109 11.292 82.5109 12.044C82.5109 12.796 82.6549 13.436 82.9429 13.964C83.2469 14.492 83.6549 14.9 84.1669 15.188C84.6789 15.476 85.2549 15.62 85.8949 15.62C86.4869 15.62 87.0309 15.484 87.5269 15.212C88.0389 14.924 88.4629 14.468 88.7989 13.844L91.7029 15.428C91.2229 16.468 90.4789 17.276 89.4709 17.852C88.4629 18.412 87.2789 18.692 85.9189 18.692ZM100.819 18.5V15.98L100.579 15.428V10.916C100.579 10.116 100.331 9.492 99.8346 9.044C99.3546 8.596 98.6106 8.372 97.6026 8.372C96.9146 8.372 96.2346 8.484 95.5626 8.708C94.9066 8.916 94.3466 9.204 93.8826 9.572L92.5386 6.956C93.2426 6.46 94.0906 6.076 95.0826 5.804C96.0746 5.532 97.0826 5.396 98.1066 5.396C100.075 5.396 101.603 5.86 102.691 6.788C103.779 7.716 104.323 9.164 104.323 11.132V18.5H100.819ZM96.8826 18.692C95.8746 18.692 95.0106 18.524 94.2906 18.188C93.5706 17.836 93.0186 17.364 92.6346 16.772C92.2506 16.18 92.0586 15.516 92.0586 14.78C92.0586 14.012 92.2426 13.34 92.6106 12.764C92.9946 12.188 93.5946 11.74 94.4106 11.42C95.2266 11.084 96.2906 10.916 97.6026 10.916H101.035V13.1H98.0106C97.1306 13.1 96.5226 13.244 96.1866 13.532C95.8666 13.82 95.7066 14.18 95.7066 14.612C95.7066 15.092 95.8906 15.476 96.2586 15.764C96.6426 16.036 97.1626 16.172 97.8186 16.172C98.4426 16.172 99.0026 16.028 99.4986 15.74C99.9946 15.436 100.355 14.996 100.579 14.42L101.155 16.148C100.883 16.98 100.387 17.612 99.6666 18.044C98.9466 18.476 98.0186 18.692 96.8826 18.692ZM106.751 18.5V0.691999H110.495V18.5H106.751Z" fill="#0582FF"/>
</svg>
