<svg width="20" height="20" viewBox="0 0 20 20" fill="none" xmlns="http://www.w3.org/2000/svg">
<g clip-path="url(#clip0_647_3495)">
<path d="M10.0002 14.1666C9.07966 14.1666 8.3335 13.4205 8.3335 12.5C8.3335 11.5795 9.07966 10.8333 10.0002 10.8333C10.9207 10.8333 11.6668 11.5795 11.6668 12.5C11.6668 13.4205 10.9207 14.1666 10.0002 14.1666Z" stroke="#0079F2" stroke-width="1.5" stroke-linecap="round" stroke-linejoin="round"/>
<path d="M9.99984 18.3334C14.6022 18.3334 18.3332 14.6024 18.3332 10C18.3332 5.39765 14.6022 1.66669 9.99984 1.66669C5.39746 1.66669 1.6665 5.39765 1.6665 10C1.6665 14.6024 5.39746 18.3334 9.99984 18.3334Z" stroke="#0079F2" stroke-width="1.5" stroke-linecap="round" stroke-linejoin="round"/>
<path d="M7.08317 7.50002C6.85305 7.50002 6.6665 7.31347 6.6665 7.08335C6.6665 6.85324 6.85305 6.66669 7.08317 6.66669C7.31329 6.66669 7.49984 6.85324 7.49984 7.08335C7.49984 7.31347 7.31329 7.50002 7.08317 7.50002Z" fill="#0079F2" stroke="#0079F2" stroke-width="1.5" stroke-linecap="round" stroke-linejoin="round"/>
<path d="M12.9167 7.50002C12.6866 7.50002 12.5 7.31347 12.5 7.08335C12.5 6.85324 12.6866 6.66669 12.9167 6.66669C13.1467 6.66669 13.3333 6.85324 13.3333 7.08335C13.3333 7.31347 13.1467 7.50002 12.9167 7.50002Z" fill="#0079F2" stroke="#0079F2" stroke-width="1.5" stroke-linecap="round" stroke-linejoin="round"/>
</g>
<defs>
<clipPath id="clip0_647_3495">
<rect width="20" height="20" fill="white"/>
</clipPath>
</defs>
</svg>
