<svg width="20" height="21" viewBox="0 0 20 21" fill="none" xmlns="http://www.w3.org/2000/svg">
<g clip-path="url(#clip0_1158_3958)">
<path d="M9.99998 14.1928C9.07948 14.1928 8.33331 13.4467 8.33331 12.5262C8.33331 11.6057 9.07948 10.8595 9.99998 10.8595C10.9205 10.8595 11.6666 11.6057 11.6666 12.5262C11.6666 13.4467 10.9205 14.1928 9.99998 14.1928Z" stroke="#797C80" stroke-width="1.5" stroke-linecap="round" stroke-linejoin="round"/>
<path d="M10 18.3595C14.6024 18.3595 18.3334 14.6285 18.3334 10.0262C18.3334 5.42381 14.6024 1.69286 10 1.69286C5.39765 1.69286 1.66669 5.42381 1.66669 10.0262C1.66669 14.6285 5.39765 18.3595 10 18.3595Z" stroke="#797C80" stroke-width="1.5" stroke-linecap="round" stroke-linejoin="round"/>
<path d="M7.08335 7.52619C6.85324 7.52619 6.66669 7.33964 6.66669 7.10952C6.66669 6.87941 6.85324 6.69286 7.08335 6.69286C7.31347 6.69286 7.50002 6.87941 7.50002 7.10952C7.50002 7.33964 7.31347 7.52619 7.08335 7.52619Z" fill="#797C80" stroke="#797C80" stroke-width="1.5" stroke-linecap="round" stroke-linejoin="round"/>
<path d="M12.9167 7.52619C12.6866 7.52619 12.5 7.33964 12.5 7.10952C12.5 6.87941 12.6866 6.69286 12.9167 6.69286C13.1467 6.69286 13.3333 6.87941 13.3333 7.10952C13.3333 7.33964 13.1467 7.52619 12.9167 7.52619Z" fill="#797C80" stroke="#797C80" stroke-width="1.5" stroke-linecap="round" stroke-linejoin="round"/>
</g>
<defs>
<clipPath id="clip0_1158_3958">
<rect width="20" height="20" fill="white" transform="translate(0 0.0261841)"/>
</clipPath>
</defs>
</svg>
