<svg width="11" height="10" viewBox="0 0 11 10" fill="none" xmlns="http://www.w3.org/2000/svg">
<g id="ic-location" clip-path="url(#clip0_1133_19999)">
<path id="Vector" d="M8.35502 4.17182C8.35502 5.68466 6.10402 8.0876 5.30161 8.89611C5.14563 9.05328 4.89775 9.05328 4.74177 8.89611C3.93936 8.0876 1.68835 5.68466 1.68835 4.17182C1.68835 2.33087 3.18074 0.838486 5.02169 0.838486C6.86265 0.838486 8.35502 2.33087 8.35502 4.17182Z" fill="#45484D" stroke="#45484D" stroke-width="0.833333"/>
<path id="Vector_2" d="M5.02165 4.58848C5.25177 4.58848 5.43831 4.40194 5.43831 4.17182C5.43831 3.9417 5.25177 3.75515 5.02165 3.75515C4.79152 3.75515 4.60498 3.9417 4.60498 4.17182C4.60498 4.40194 4.79152 4.58848 5.02165 4.58848Z" fill="#F5F7FA" stroke="#F5F7FA" stroke-width="1.66667" stroke-linecap="round" stroke-linejoin="round"/>
</g>
<defs>
<clipPath id="clip0_1133_19999">
<rect width="10" height="10" fill="white" transform="translate(0.0216675 0.00514984)"/>
</clipPath>
</defs>
</svg>
