<svg width="21" height="21" viewBox="0 0 21 21" fill="none" xmlns="http://www.w3.org/2000/svg">
<path d="M10.9839 10.4445C11.214 10.4444 11.4005 10.2577 11.4004 10.0276C11.4003 9.79757 11.2136 9.61106 10.9836 9.61115C10.7535 9.61125 10.567 9.79791 10.5671 10.028C10.5672 10.2581 10.7538 10.4446 10.9839 10.4445Z" fill="#808080" stroke="#808080" stroke-width="1.5" stroke-linecap="round" stroke-linejoin="round"/>
<path d="M10.9867 17.1115C11.2168 17.1114 11.4033 16.9247 11.4032 16.6946C11.4031 16.4646 11.2165 16.2781 10.9864 16.2781C10.7563 16.2782 10.5698 16.4649 10.5699 16.695C10.57 16.9251 10.7566 17.1116 10.9867 17.1115Z" fill="#808080" stroke="#808080" stroke-width="1.5" stroke-linecap="round" stroke-linejoin="round"/>
<path d="M10.9811 3.77847C11.2112 3.77838 11.3977 3.59175 11.3976 3.36163C11.3975 3.13152 11.2108 2.94504 10.9808 2.94514C10.7507 2.94523 10.5642 3.13186 10.5643 3.36198C10.5644 3.5921 10.751 3.77857 10.9811 3.77847Z" fill="#808080" stroke="#808080" stroke-width="1.5" stroke-linecap="round" stroke-linejoin="round"/>
</svg>
