<svg width="41" height="40" viewBox="0 0 41 40" fill="none" xmlns="http://www.w3.org/2000/svg">
<g id="&#226;&#128;&#188;&#239;&#184;&#143; &#235;&#145;&#144; &#234;&#176;&#156;&#236;&#157;&#152; &#235;&#138;&#144;&#235;&#130;&#140;&#237;&#145;&#156;" clip-path="url(#clip0_1666_19006)">
<g id="Group">
<g id="Group_2">
<path id="Vector" d="M14.1678 27.3718C12.1688 27.3718 10.5488 29.0028 10.5488 31.0138C10.5488 33.0248 12.1688 34.6558 14.1678 34.6558C16.1668 34.6558 17.7868 33.0248 17.7868 31.0138C17.7868 29.0028 16.1668 27.3718 14.1678 27.3718Z" fill="#FA505B"/>
<path id="Vector_2" d="M14.168 23.3679C12.787 23.3679 11.668 22.2489 11.668 20.8679V5.53589C11.668 4.15489 12.787 3.03589 14.168 3.03589C15.549 3.03589 16.668 4.15489 16.668 5.53589V20.8689C16.668 22.2499 15.549 23.3679 14.168 23.3679Z" fill="#FA505B"/>
</g>
<g id="Group_3">
<path id="Vector_3" d="M26.8319 27.3718C24.8339 27.3718 23.2129 29.0028 23.2129 31.0138C23.2129 33.0248 24.8329 34.6558 26.8319 34.6558C28.8309 34.6558 30.4509 33.0248 30.4509 31.0138C30.4509 29.0028 28.8309 27.3718 26.8319 27.3718Z" fill="#FA505B"/>
<path id="Vector_4" d="M26.832 23.3679C25.451 23.3679 24.332 22.2489 24.332 20.8679V5.53589C24.332 4.15489 25.451 3.03589 26.832 3.03589C28.213 3.03589 29.332 4.15489 29.332 5.53589V20.8689C29.332 22.2499 28.213 23.3679 26.832 23.3679Z" fill="#FA505B"/>
</g>
</g>
</g>
<defs>
<clipPath id="clip0_1666_19006">
<rect width="40" height="40" fill="white" transform="translate(0.5)"/>
</clipPath>
</defs>
</svg>
