<svg width="20" height="20" viewBox="0 0 20 20" fill="none" xmlns="http://www.w3.org/2000/svg">
<g clip-path="url(#clip0_773_15484)">
<path d="M13.2228 12.4075C12.5323 12.4075 11.9728 11.848 11.9728 11.1575C11.9728 9.20403 13.1508 8.25853 14.0108 7.56853C14.6823 7.02953 15.0693 6.69503 15.2078 6.08853C15.3203 5.59653 15.2353 5.18253 14.9478 4.82203C14.5748 4.35403 13.8818 4.04003 13.2228 4.04003C12.3643 4.04003 11.6148 4.59503 11.3583 5.42203C11.2988 5.61253 11.2688 5.81203 11.2688 6.01453C11.2688 6.70503 10.7093 7.26453 10.0188 7.26453C9.3283 7.26453 8.7688 6.70503 8.7688 6.01453C8.7688 5.56003 8.8368 5.11153 8.9703 4.68053C9.5538 2.80253 11.2623 1.54053 13.2223 1.54053C14.6443 1.54053 16.0538 2.20103 16.9018 3.26353C17.6613 4.21553 17.9248 5.41653 17.6448 6.64503C17.3058 8.13053 16.3463 8.90053 15.5748 9.51903C14.7908 10.1485 14.4723 10.433 14.4723 11.158C14.4723 11.8485 13.9128 12.408 13.2223 12.408L13.2228 12.4075Z" fill="#EF4452"/>
<path d="M13.2388 13.7361C12.2533 13.7361 11.4543 14.5401 11.4543 15.5321C11.4543 16.5241 12.2533 17.3281 13.2388 17.3281C14.2243 17.3281 15.0233 16.5241 15.0233 15.5321C15.0233 14.5401 14.2243 13.7361 13.2388 13.7361Z" fill="#EF4452"/>
<path d="M5.27888 13.736C4.29338 13.736 3.49438 14.54 3.49438 15.532C3.49438 16.524 4.29338 17.328 5.27888 17.328C6.26438 17.328 7.06338 16.524 7.06338 15.532C7.06338 14.54 6.26438 13.736 5.27888 13.736Z" fill="#EF4452"/>
<path d="M5.2793 11.779C4.5888 11.779 4.0293 11.2195 4.0293 10.529V2.96802C4.0293 2.27752 4.5888 1.71802 5.2793 1.71802C5.9698 1.71802 6.5293 2.27752 6.5293 2.96802V10.529C6.5293 11.2195 5.9698 11.779 5.2793 11.779Z" fill="#EF4452"/>
</g>
<defs>
<clipPath id="clip0_773_15484">
<rect width="20" height="20" fill="white"/>
</clipPath>
</defs>
</svg>
