<svg width="40" height="40" viewBox="0 0 40 40" fill="none" xmlns="http://www.w3.org/2000/svg">
<g id="&#226;&#156;&#143;&#239;&#184;&#143; &#236;&#151;&#176;&#237;&#149;&#132;" clip-path="url(#clip0_929_25220)">
<g id="Group">
<path id="Vector" d="M25.7712 6.17466L5.10742 26.8384L12.9443 34.6753L33.6081 14.0115L25.7712 6.17466Z" fill="#FFAA00"/>
<path id="Vector_2" fill-rule="evenodd" clip-rule="evenodd" d="M36.8444 10.777L33.6104 14.012L25.7734 6.174L29.0074 2.94C29.8824 2.065 31.3004 2.065 32.1744 2.94L36.8444 7.61C37.7194 8.485 37.7194 9.902 36.8444 10.777Z" fill="#FF9000"/>
<path id="Vector_3" fill-rule="evenodd" clip-rule="evenodd" d="M3.29523 37.261L7.12523 36.235L3.54823 32.657L2.52223 36.488C2.39623 36.957 2.82623 37.386 3.29523 37.261Z" fill="#313D4C"/>
<path id="Vector_4" fill-rule="evenodd" clip-rule="evenodd" d="M3.54883 32.657L7.12483 36.235L12.9458 34.675L5.10883 26.838L3.54883 32.657Z" fill="#FFCCA8"/>
</g>
</g>
<defs>
<clipPath id="clip0_929_25220">
<rect width="40" height="40" fill="white"/>
</clipPath>
</defs>
</svg>
