<svg width="20" height="20" viewBox="0 0 20 20" fill="none" xmlns="http://www.w3.org/2000/svg">
<g clip-path="url(#clip0_773_15442)">
<path d="M10 18.75C14.8325 18.75 18.75 14.8325 18.75 10C18.75 5.16751 14.8325 1.25 10 1.25C5.16751 1.25 1.25 5.16751 1.25 10C1.25 14.8325 5.16751 18.75 10 18.75Z" fill="#7BD58F"/>
<path d="M2.39945 14.019C2.34845 14.03 2.29945 14.0505 2.25745 14.076C3.72345 16.855 6.63945 18.75 9.99995 18.75C14.8324 18.75 18.7499 14.8325 18.7499 10C18.7499 5.1675 14.8324 1.25 9.99995 1.25C8.89795 1.25 7.84395 1.456 6.87295 1.8275C6.92495 1.8725 7.02145 1.882 7.09445 1.902C7.54695 2.0285 7.95295 2.249 8.28895 2.5735C8.68245 2.953 9.01995 3.3925 9.67645 3.2805C9.99095 3.227 10.3224 3.2715 10.6459 3.2715C11.0444 3.2715 11.4429 3.28 11.8409 3.269C12.1829 3.2595 12.4739 3.34 12.7034 3.615C12.9149 3.8685 13.1864 3.983 13.5294 3.949C13.7884 3.9235 14.0519 3.951 14.3134 3.9465C14.5294 3.943 14.6344 4.031 14.6324 4.2565C14.6304 4.474 14.5524 4.6235 14.3254 4.647C14.1654 4.6635 13.9949 4.682 13.8419 4.646C13.6359 4.597 13.5084 4.662 13.3444 4.7855C12.9399 5.0905 12.6509 5.445 12.6244 5.9695C12.6154 6.151 12.5284 6.238 12.3404 6.235C12.1434 6.232 12.0844 6.1235 12.0784 5.949C12.0729 5.7925 11.9969 5.6695 11.8869 5.5575C11.6219 5.2885 10.9039 5.151 10.5419 5.3005C10.3834 5.366 10.3684 5.4855 10.3649 5.632C10.3609 5.795 10.4259 5.9115 10.5809 5.9315C10.9574 5.9795 11.1754 6.2125 11.3344 6.5275C11.3824 6.623 11.4554 6.6725 11.5644 6.694C11.9804 6.777 12.1089 7.139 11.8129 7.4505C11.5519 7.725 11.2919 7.982 11.2619 8.391C11.2499 8.551 11.1109 8.565 10.9779 8.562C10.8264 8.5585 10.7529 8.482 10.7404 8.333C10.7209 8.1015 10.7379 7.889 10.9394 7.725C11.0739 7.6155 11.1989 7.4885 11.2509 7.3135C11.2789 7.2185 11.3179 7.102 11.2224 7.037C11.1284 6.9735 11.0664 7.0795 11.0104 7.139C10.9134 7.242 10.7819 7.2285 10.6634 7.2535C10.2104 7.3485 9.98445 7.6155 9.98595 8.0755C9.98645 8.2875 9.97745 8.497 9.93195 8.7055C9.90495 8.8305 9.84995 8.9145 9.72095 8.93C9.38045 8.97 9.31795 9.2 9.31095 9.4905C9.30195 9.863 9.34995 10.237 9.27795 10.6075C9.24695 10.766 9.24595 10.9325 9.01245 10.943C8.79995 10.952 8.74045 10.8285 8.68595 10.66C8.62945 10.485 8.62045 10.281 8.47795 10.148C8.20545 9.894 8.01095 9.6075 7.96595 9.2255C7.94495 9.0465 7.80445 9.0025 7.63295 9.004C7.47345 9.005 7.34245 9.056 7.32795 9.212C7.28745 9.6435 7.03845 9.94 6.73895 10.2145C6.62145 10.3225 6.59745 10.4765 6.57695 10.623C6.55545 10.777 6.55195 10.92 6.34345 10.9415C6.11245 10.9655 6.04195 10.8285 5.99195 10.644C5.92695 10.4045 5.86345 10.161 5.65145 9.997C5.45295 9.844 5.35845 9.6285 5.31195 9.392C5.27195 9.19 5.24945 9.004 4.96445 9.0015C4.68795 8.999 4.65145 9.164 4.59945 9.373C4.50145 9.767 4.14595 9.9975 3.78995 9.9115C3.55495 9.8545 3.43345 9.658 3.31045 9.47C3.18895 9.2845 3.06695 9.2655 2.88845 9.4265C2.65745 9.6345 2.48945 9.877 2.60995 10.172C2.71545 10.43 2.91195 10.658 3.23845 10.6835C3.53945 10.707 3.78245 10.8575 3.86045 11.1355C3.94145 11.4245 3.91945 11.745 3.64295 11.953C3.30595 12.2065 3.24245 12.539 3.25345 12.9365C3.27495 13.7105 3.14095 13.8615 2.40145 14.018L2.39945 14.019ZM13.3304 16.2395C13.3204 16.058 13.3684 15.898 13.5009 15.766C13.7519 15.516 14.0384 15.3015 14.0349 14.879C14.0334 14.698 14.2394 14.6545 14.4139 14.6665C14.5839 14.678 14.7024 14.7665 14.7219 14.935C14.7539 15.21 14.7474 15.474 14.5099 15.6865C14.2739 15.898 14.0314 16.0995 14.0354 16.4825C14.0379 16.7095 13.8109 16.7575 13.6104 16.7255C13.3279 16.68 13.3229 16.46 13.3304 16.2395ZM11.0979 11.395C11.2964 11.361 11.4324 11.492 11.5579 11.634C11.7784 11.8835 12.0214 12.0805 12.3814 12.0725C12.5549 12.0685 12.6129 12.183 12.6124 12.344C12.6119 12.5115 12.5354 12.59 12.3674 12.606C12.1544 12.626 11.9784 12.577 11.8344 12.409C11.6034 12.139 11.3474 11.916 10.9544 11.9265C10.7764 11.931 10.7394 11.7935 10.7434 11.6395C10.7489 11.4065 10.9094 11.395 11.0974 11.3955L11.0979 11.395ZM10.0734 10.3725C10.0984 10.1705 10.2189 10.0725 10.3974 10.0575C10.5644 10.051 10.6089 10.133 10.5924 10.2665C10.5674 10.468 10.4479 10.5695 10.2504 10.5815C10.1014 10.5905 10.0574 10.5055 10.0734 10.3725ZM10.6169 13.393C10.8534 13.4115 11.0169 13.2975 11.0509 13.033C11.0699 12.886 11.1549 12.7965 11.3289 12.7935C11.5179 12.79 11.6104 12.879 11.6354 13.0455C11.6599 13.2105 11.7344 13.3175 11.8939 13.3745C12.6059 13.628 12.6284 13.662 12.6274 14.467C12.7014 14.834 12.5524 15.1785 12.2079 15.449C12.1309 15.5095 12.0599 15.586 12.0069 15.668C11.7854 16.0085 11.7119 16.042 11.4614 15.744C11.1464 15.3695 10.7714 15.259 10.3054 15.2965C10.0944 15.3135 9.87695 15.3455 9.66895 15.1785C9.21395 14.813 9.29595 14.163 9.81995 13.7135C10.0519 13.5145 10.2889 13.367 10.6169 13.393ZM8.26545 11.456C8.42695 11.4365 8.54195 11.4945 8.57045 11.654C8.61495 11.904 8.71045 12.056 9.00495 12.0505C9.28795 12.045 9.35845 11.883 9.40295 11.6565C9.43395 11.499 9.54395 11.4365 9.70645 11.4555C9.91445 11.4795 9.85995 11.6435 9.89695 11.79C9.80945 12.1545 9.52745 12.3845 9.21745 12.557C8.94595 12.708 8.68595 12.5955 8.48695 12.3655C8.32245 12.175 8.05245 12.05 8.08745 11.7325C8.10095 11.61 8.08745 11.4775 8.26495 11.4565L8.26545 11.456ZM3.35495 13.854C3.47445 13.7 3.62295 13.5645 3.77745 13.444C3.81595 13.414 3.87395 13.4985 3.85995 13.666C3.84595 13.7805 3.73045 13.9075 3.52145 13.942C3.44395 13.955 3.32295 13.8955 3.35495 13.854Z" fill="#2F81F9"/>
</g>
<defs>
<clipPath id="clip0_773_15442">
<rect width="20" height="20" fill="white"/>
</clipPath>
</defs>
</svg>
