<svg width="20" height="20" viewBox="0 0 20 20" fill="none" xmlns="http://www.w3.org/2000/svg">
<g clip-path="url(#clip0_773_15424)">
<path d="M3.08154 18.572L14.738 14.3825L5.12404 4.80151L0.954039 16.447C0.480539 17.77 1.75954 19.047 3.08154 18.572Z" fill="#EF4452"/>
<path d="M5.17802 2.33101C5.69385 2.33101 6.11202 1.91285 6.11202 1.39701C6.11202 0.881179 5.69385 0.463013 5.17802 0.463013C4.66218 0.463013 4.24402 0.881179 4.24402 1.39701C4.24402 1.91285 4.66218 2.33101 5.17802 2.33101Z" fill="#EDCCF8"/>
<path d="M15.1647 14.1284C16.1664 13.1267 14.7894 10.1257 12.0891 7.42541C9.38886 4.72513 6.38781 3.34815 5.38612 4.34984C4.38442 5.35154 5.7614 8.35258 8.46168 11.0529C11.162 13.7531 14.163 15.1301 15.1647 14.1284Z" fill="#A41926"/>
<path d="M8.53153 6.90352C8.47503 6.90352 8.41703 6.89552 8.35953 6.87952C8.02753 6.78502 7.83553 6.43902 7.93003 6.10702C8.22803 5.06352 8.21204 3.96152 7.88354 2.92002C7.77954 2.59052 7.96254 2.24002 8.29154 2.13602C8.62054 2.03202 8.97153 2.21452 9.07553 2.54402C9.47803 3.81952 9.49754 5.17052 9.13204 6.45002C9.05354 6.72452 8.80403 6.90352 8.53153 6.90352Z" fill="#B44BD7"/>
<path d="M14.6846 8.72849C14.4911 8.72849 14.3001 8.63899 14.1781 8.46999C13.9756 8.19049 14.0381 7.79998 14.3176 7.59698C15.6396 6.63898 17.2051 6.09448 18.8451 6.02298C19.1926 6.01948 19.4816 6.27548 19.4971 6.61998C19.5121 6.96498 19.2446 7.25648 18.9001 7.27198C17.5051 7.33298 16.1746 7.79548 15.0511 8.60948C14.9401 8.68998 14.8121 8.72849 14.6851 8.72849H14.6846Z" fill="#EF4452"/>
<path d="M17.19 11.883C17.1105 11.883 17.0295 11.8675 16.951 11.835C16.531 11.661 16.093 11.527 15.649 11.4365C14.2625 11.1535 12.835 11.291 11.521 11.835C11.2005 11.9665 10.836 11.8155 10.7045 11.497C10.5725 11.178 10.724 10.8125 11.0425 10.6805C12.588 10.0405 14.268 9.87849 15.899 10.212C16.421 10.3185 16.936 10.476 17.4295 10.6805C17.7485 10.8125 17.9 11.178 17.768 11.497C17.6685 11.7375 17.435 11.883 17.19 11.883Z" fill="#7896FF"/>
<path d="M10.6785 8.78496C10.491 8.78496 10.305 8.70096 10.182 8.54046C9.97198 8.26696 10.0235 7.87446 10.2975 7.66446C11.801 6.51096 12.765 4.84096 13.0125 2.96196C13.0575 2.61996 13.372 2.37846 13.7135 2.42396C14.056 2.46896 14.297 2.78296 14.2515 3.12496C13.9605 5.33496 12.8265 7.29896 11.058 8.65596C10.9445 8.74296 10.8115 8.78496 10.6785 8.78496Z" fill="#4A81EC"/>
<path d="M7.86516 9.86842L7.86539 8.92992C7.86544 8.73468 7.70721 8.57638 7.51198 8.57633L6.57348 8.5761C6.37825 8.57605 6.21994 8.73428 6.21989 8.92951L6.21966 9.86801C6.21962 10.0632 6.37784 10.2216 6.57308 10.2216L7.51158 10.2218C7.70681 10.2219 7.86512 10.0636 7.86516 9.86842Z" fill="white"/>
<path d="M11.8075 0.277424L10.9503 0.709758C10.7721 0.79967 10.7005 1.01707 10.7904 1.19533L11.2227 2.05246C11.3126 2.23072 11.53 2.30234 11.7083 2.21243L12.5654 1.7801C12.7437 1.69018 12.8153 1.47279 12.7254 1.29453L12.293 0.43739C12.2031 0.259131 11.9857 0.187512 11.8075 0.277424Z" fill="#7896FF"/>
<path d="M18.6673 14.7012L18.9581 13.7863C19.0186 13.596 18.9134 13.3927 18.7231 13.3323L17.8082 13.0414C17.618 12.981 17.4147 13.0862 17.3542 13.2764L17.0634 14.1913C17.0029 14.3816 17.1081 14.5849 17.2984 14.6454L18.2133 14.9362C18.4035 14.9967 18.6068 14.8914 18.6673 14.7012Z" fill="#A8BFFF"/>
<path d="M16.767 5.25705C17.1823 5.25705 17.519 4.92037 17.519 4.50505C17.519 4.08973 17.1823 3.75305 16.767 3.75305C16.3517 3.75305 16.015 4.08973 16.015 4.50505C16.015 4.92037 16.3517 5.25705 16.767 5.25705Z" fill="#FFC84D"/>
<path d="M1.752 8.51755C2.16732 8.51755 2.504 8.18087 2.504 7.76555C2.504 7.35023 2.16732 7.01355 1.752 7.01355C1.33668 7.01355 1 7.35023 1 7.76555C1 8.18087 1.33668 8.51755 1.752 8.51755Z" fill="#A8BFFF"/>
<path d="M12.282 18.324C12.7667 18.324 13.1595 17.9311 13.1595 17.4465C13.1595 16.9618 12.7667 16.569 12.282 16.569C11.7974 16.569 11.4045 16.9618 11.4045 17.4465C11.4045 17.9311 11.7974 18.324 12.282 18.324Z" fill="#FFC84D"/>
</g>
<defs>
<clipPath id="clip0_773_15424">
<rect width="20" height="20" fill="white"/>
</clipPath>
</defs>
</svg>
