<svg width="20" height="20" viewBox="0 0 20 20" fill="none" xmlns="http://www.w3.org/2000/svg">
<g clip-path="url(#clip0_773_15462)">
<path d="M9.97656 15.5344C10.0431 15.5499 10.1101 15.5694 10.1781 15.5944C10.2461 15.6189 10.3101 15.6479 10.3711 15.6784L10.5816 15.0999L10.2426 14.8029L9.97656 15.5344Z" fill="#ABB7C7"/>
<path d="M9.64153 16.4539L9.28703 17.4279C9.24703 17.5369 9.30353 17.6574 9.41253 17.6969C9.43603 17.7059 9.46053 17.7094 9.48453 17.7094C9.57053 17.7094 9.65103 17.6569 9.68203 17.5714L10.0365 16.5974C9.97003 16.5819 9.90253 16.5624 9.83453 16.5374C9.76653 16.5129 9.70203 16.4844 9.64153 16.4539Z" fill="#ABB7C7"/>
<path d="M10.9021 12.9914L11.2406 13.2884L11.6781 12.0874L11.3391 11.7904L10.9021 12.9914Z" fill="#ABB7C7"/>
<path d="M14.1915 5.18091C14.1665 5.18541 14.1425 5.19241 14.1165 5.19241C14.0685 5.19241 14.0205 5.18391 13.973 5.16691C13.8995 5.14041 13.844 5.09141 13.798 5.03491L11.9985 9.97991L12.337 10.2769L14.1915 5.18091Z" fill="#ABB7C7"/>
<path d="M5.37505 16.4539L5.02055 17.4279C4.98055 17.5369 5.03705 17.6574 5.14605 17.6969C5.16955 17.7059 5.19405 17.7094 5.21805 17.7094C5.30405 17.7094 5.38455 17.6569 5.41555 17.5714L5.77005 16.5974C5.70355 16.5819 5.63605 16.5624 5.56805 16.5374C5.50005 16.5129 5.43605 16.4844 5.37505 16.4539Z" fill="#ABB7C7"/>
<path d="M8.44257 9.2534L9.10157 7.4424L9.92457 5.1814C9.89957 5.1859 9.87557 5.1929 9.84957 5.1929C9.80157 5.1929 9.75357 5.1844 9.70607 5.1674C9.63257 5.1409 9.57707 5.0919 9.53107 5.0354L8.76307 7.1459L8.10407 8.9569L7.66707 10.1579L7.00807 11.9689L5.71057 15.5344C5.77707 15.5499 5.84407 15.5694 5.91207 15.5944C5.98007 15.6189 6.04407 15.6479 6.10507 15.6784L7.34707 12.2659L8.00607 10.4549L8.44307 9.2539L8.44257 9.2534Z" fill="#ABB7C7"/>
<path d="M9.97649 15.5345C9.55449 15.434 9.18349 15.5115 9.10149 15.737C9.01949 15.962 9.25449 16.2605 9.64199 16.4545C9.70299 16.485 9.76699 16.5135 9.83449 16.538C9.90249 16.563 9.96999 16.582 10.0365 16.598C10.458 16.698 10.8295 16.621 10.9115 16.3955C10.9935 16.17 10.759 15.8725 10.3715 15.678C10.3105 15.6475 10.2465 15.619 10.1785 15.594C10.1105 15.5695 10.0435 15.55 9.97699 15.534L9.97649 15.5345Z" fill="#FF3D29"/>
<path d="M5.71001 15.5345C5.28801 15.434 4.91701 15.5115 4.83501 15.737C4.75301 15.962 4.98801 16.26 5.37551 16.4545C5.43651 16.485 5.50051 16.5135 5.56851 16.538C5.63651 16.563 5.70401 16.582 5.77051 16.598C6.19201 16.698 6.56351 16.621 6.64551 16.3955C6.72751 16.17 6.49301 15.8725 6.10551 15.678C6.04451 15.6475 5.98051 15.619 5.91251 15.594C5.84451 15.5695 5.77751 15.55 5.71101 15.534L5.71001 15.5345Z" fill="#FF3D29"/>
<path d="M14.1166 5.19245C14.1421 5.19245 14.1666 5.18545 14.1916 5.18095C14.3331 5.15495 14.4586 5.06095 14.5116 4.91595L15.3386 2.64395C15.4176 2.42595 15.3056 2.18495 15.0871 2.10545C14.8701 2.02645 14.6286 2.13795 14.5486 2.35645L13.7216 4.62845C13.6691 4.77295 13.7066 4.92395 13.7976 5.03495C13.8436 5.09145 13.8996 5.14045 13.9726 5.16695C14.0201 5.18445 14.0686 5.19245 14.1166 5.19245Z" fill="#4E5968"/>
<path d="M6.81153 5.43544C6.43503 5.10544 6.14553 4.68844 5.96803 4.22044C5.79703 3.76994 5.29103 3.50544 4.84303 3.68294C4.38203 3.86544 4.18203 4.36444 4.34453 4.79344L4.56753 5.38194C4.74503 5.84994 5.03453 6.26744 5.41103 6.59744L8.10403 8.95694L8.76303 7.14594L6.81103 5.43594L6.81153 5.43544Z" fill="#4E5968"/>
<path d="M17.701 14.2299L17.3975 14.1424C16.7635 13.9604 16.178 13.6404 15.682 13.2059L12.337 10.2754L11.9985 9.97842L9.10199 7.44092L8.44299 9.25192L11.3395 11.7889L11.6785 12.0859L14.282 14.3669C14.778 14.8014 15.364 15.1214 15.9975 15.3034L16.4705 15.4394C16.958 15.5794 17.483 15.4744 17.8785 15.1584C18.217 14.8874 18.119 14.3494 17.702 14.2294L17.701 14.2299Z" fill="#4E5968"/>
<path d="M4.44105 7.33143C4.06455 7.00143 3.77505 6.58443 3.59755 6.11643C3.42655 5.66593 2.92055 5.40143 2.47255 5.57893C2.01155 5.76143 1.81155 6.26043 1.97405 6.68943L2.19705 7.27793C2.37455 7.74593 2.66405 8.16343 3.04055 8.49293L7.00755 11.9684L7.66655 10.1574L4.44105 7.33143Z" fill="#4E5968"/>
<path d="M8.00556 10.4545L7.34656 12.2655L10.2431 14.803L10.5821 15.1L11.9116 16.2645C12.4076 16.699 12.9936 17.019 13.6271 17.201L14.1001 17.337C14.5876 17.477 15.1126 17.372 15.5081 17.056C15.8466 16.785 15.7486 16.247 15.3316 16.127L15.0281 16.0395C14.3941 15.8575 13.8086 15.5375 13.3126 15.103L11.2416 13.2885L10.9031 12.9915L8.00656 10.454L8.00556 10.4545Z" fill="#4E5968"/>
<path d="M9.85 5.19245C9.8755 5.19245 9.9 5.18545 9.925 5.18095C10.0665 5.15495 10.192 5.06095 10.245 4.91595L11.072 2.64395C11.151 2.42595 11.039 2.18495 10.8205 2.10545C10.604 2.02645 10.362 2.13795 10.282 2.35645L9.455 4.62845C9.4025 4.77295 9.44 4.92395 9.531 5.03495C9.577 5.09145 9.633 5.14045 9.706 5.16695C9.7535 5.18445 9.8015 5.19245 9.8495 5.19245H9.85Z" fill="#4E5968"/>
</g>
<defs>
<clipPath id="clip0_773_15462">
<rect width="20" height="20" fill="white"/>
</clipPath>
</defs>
</svg>
