<svg width="20" height="20" viewBox="0 0 20 20" fill="none" xmlns="http://www.w3.org/2000/svg">
<g clip-path="url(#clip0_773_8496)">
<path d="M5.3665 17.0065C7.50191 17.0065 9.233 13.8696 9.233 10C9.233 6.13042 7.50191 2.9935 5.3665 2.9935C3.23109 2.9935 1.5 6.13042 1.5 10C1.5 13.8696 3.23109 17.0065 5.3665 17.0065Z" fill="#E5E8EB"/>
<path d="M14.6335 17.0065C16.7689 17.0065 18.5 13.8696 18.5 10C18.5 6.13042 16.7689 2.9935 14.6335 2.9935C12.4981 2.9935 10.767 6.13042 10.767 10C10.767 13.8696 12.4981 17.0065 14.6335 17.0065Z" fill="#E5E8EB"/>
<path d="M4.3755 11.9535C5.45439 11.9535 6.329 11.0789 6.329 10C6.329 8.92112 5.45439 8.04651 4.3755 8.04651C3.29661 8.04651 2.422 8.92112 2.422 10C2.422 11.0789 3.29661 11.9535 4.3755 11.9535Z" fill="#191F28"/>
<path d="M13.8521 11.9535C14.9309 11.9535 15.8056 11.0789 15.8056 10C15.8056 8.92112 14.9309 8.04651 13.8521 8.04651C12.7732 8.04651 11.8986 8.92112 11.8986 10C11.8986 11.0789 12.7732 11.9535 13.8521 11.9535Z" fill="#191F28"/>
<path d="M3.57699 9.78199C3.8349 9.78199 4.04399 9.57291 4.04399 9.31499C4.04399 9.05707 3.8349 8.84799 3.57699 8.84799C3.31907 8.84799 3.10999 9.05707 3.10999 9.31499C3.10999 9.57291 3.31907 9.78199 3.57699 9.78199Z" fill="white"/>
<path d="M13.1049 9.78199C13.3629 9.78199 13.5719 9.57291 13.5719 9.31499C13.5719 9.05707 13.3629 8.84799 13.1049 8.84799C12.847 8.84799 12.6379 9.05707 12.6379 9.31499C12.6379 9.57291 12.847 9.78199 13.1049 9.78199Z" fill="white"/>
</g>
<defs>
<clipPath id="clip0_773_8496">
<rect width="20" height="20" fill="white"/>
</clipPath>
</defs>
</svg>
