<svg width="40" height="40" viewBox="0 0 40 40" fill="none" xmlns="http://www.w3.org/2000/svg">
<g id="&#240;&#159;&#146;&#161; &#236;&#160;&#132;&#234;&#181;&#172;" clip-path="url(#clip0_929_25234)">
<g id="Group">
<path id="Vector" d="M34.6631 15.633C34.3851 7.91598 28.0551 1.67598 20.3351 1.50398C12.0791 1.31998 5.32812 7.95798 5.32812 16.173C5.32812 18.66 5.94912 21.002 7.04112 23.054L7.03512 23.05C7.05112 23.079 7.06612 23.105 7.08212 23.133C7.12312 23.209 7.16712 23.283 7.21012 23.359C7.25412 23.437 7.29912 23.515 7.34312 23.59C7.41412 23.712 7.48712 23.832 7.56212 23.951C7.60512 24.019 7.64713 24.084 7.69012 24.15C7.74513 24.235 7.79912 24.321 7.85512 24.405C9.93313 27.499 11.7001 27.721 12.3261 30.082H18.6761V23.02L15.2871 19.631C14.7391 19.083 14.7391 18.195 15.2871 17.647C15.8351 17.099 16.7231 17.099 17.2711 17.647L20.0221 20.398L22.7291 17.691C23.2771 17.143 24.1651 17.143 24.7131 17.691C25.2611 18.239 25.2611 19.127 24.7131 19.675L21.3241 23.064V30.081H27.6741C28.3021 27.711 30.0791 27.496 32.1661 24.375C32.1681 24.373 32.1691 24.37 32.1711 24.368C32.2711 24.219 32.3711 24.062 32.4721 23.899C32.5241 23.815 32.5751 23.731 32.6251 23.646C32.7391 23.455 32.8531 23.259 32.9671 23.049L32.9581 23.054C34.1291 20.853 34.7591 18.32 34.6621 15.632L34.6631 15.633Z" fill="#FFC33A"/>
<path id="Vector_2" d="M21.324 30.083V23.066L24.713 19.677C25.261 19.129 25.261 18.241 24.713 17.693C24.165 17.145 23.277 17.145 22.729 17.693L20.022 20.4L17.271 17.649C16.723 17.101 15.835 17.101 15.287 17.649C14.739 18.197 14.739 19.085 15.287 19.633L18.676 23.022V30.084H21.325L21.324 30.083Z" fill="#FF9000"/>
<path id="Vector_3" d="M12.3545 30.0828C12.3615 30.2408 12.3665 30.4048 12.3685 30.5768V33.4558C12.3685 36.2408 14.8265 38.4988 17.6125 38.4988H22.3885C25.1735 38.4988 27.6625 36.2408 27.6625 33.4558V30.6878C27.6625 30.4738 27.6685 30.2748 27.6775 30.0818H12.3555L12.3545 30.0828Z" fill="#7D8996"/>
</g>
<path id="Vector_4" d="M27.8476 30.3081H12.1836V33.3081H27.8476V30.3081Z" fill="#4B596A"/>
</g>
<defs>
<clipPath id="clip0_929_25234">
<rect width="40" height="40" fill="white"/>
</clipPath>
</defs>
</svg>
