<svg width="20" height="20" viewBox="0 0 20 20" fill="none" xmlns="http://www.w3.org/2000/svg">
<g clip-path="url(#clip0_773_8539)">
<path d="M10 0.70401C11.1795 0.70401 11.157 1.13601 11.9515 1.17801C12.746 1.22051 13.1615 0.97051 13.698 1.04951C14.071 1.10451 14.3515 1.27101 14.5455 1.43451C14.7575 1.61351 14.7925 1.92501 14.6235 2.14501L12.7755 4.54601C12.611 4.74151 12.631 5.03101 12.824 5.19801C15.7 7.68951 19.25 10.686 19.25 13.3765C19.25 17.8975 15.539 19.2965 10 19.2965C4.461 19.2965 0.75 17.8975 0.75 13.3765C0.75 10.6865 4.3 7.68951 7.176 5.19801C7.369 5.03101 7.389 4.74101 7.2245 4.54601L5.3765 2.14501C5.2075 1.92501 5.2425 1.61351 5.4545 1.43451C5.6485 1.27101 5.929 1.10451 6.302 1.04951C6.8385 0.97051 7.2545 1.22051 8.0485 1.17801C8.843 1.13551 8.8205 0.70401 10 0.70401Z" fill="#FFC522"/>
<path d="M10.0415 5.69251C9.07097 5.69251 8.09846 5.60151 7.14946 5.42051C6.84696 5.36251 6.64897 5.07051 6.70647 4.76801C6.76447 4.46551 7.05697 4.26601 7.35897 4.32451C9.11847 4.66001 10.968 4.66151 12.7075 4.32451C13.0095 4.26401 13.3025 4.46351 13.361 4.76601C13.4195 5.06851 13.2215 5.36101 12.919 5.41951C11.9805 5.60101 11.0125 5.69201 10.0415 5.69201V5.69251Z" fill="#99452E"/>
<path d="M10.1201 15.9625C8.83606 15.9625 7.85856 15.2025 7.44956 14.681C7.21106 14.3765 7.26456 13.9365 7.56906 13.698C7.87206 13.461 8.30906 13.5125 8.54856 13.8135C8.64556 13.933 9.52356 14.954 10.9001 14.404C11.2346 14.2705 11.3871 14.0285 11.3646 13.858C11.3306 13.5975 10.8966 13.286 10.0046 13.179C7.80456 12.915 7.47306 11.668 7.42356 11.2915C7.31256 10.4415 7.84856 9.62652 8.75756 9.26352C10.5966 8.53052 11.9386 9.51552 12.4301 9.97302C12.7131 10.236 12.7286 10.6795 12.4651 10.9625C12.2011 11.245 11.7591 11.261 11.4756 10.9975C11.0261 10.5785 10.2791 10.164 9.27606 10.5645C8.94156 10.698 8.78906 10.94 8.81156 11.1105C8.84556 11.371 9.27906 11.6825 10.1711 11.7895C12.3711 12.0535 12.7026 13.3005 12.7521 13.6765C12.8636 14.5265 12.3271 15.3415 11.4186 15.7045C10.9606 15.887 10.5246 15.963 10.1196 15.963L10.1201 15.9625Z" fill="#FFF3CC"/>
<path d="M10.0887 10.402C9.70217 10.402 9.38867 10.089 9.38867 9.70251V8.7045C9.38867 8.318 9.70217 8.005 10.0887 8.005C10.4752 8.005 10.7887 8.318 10.7887 8.7045V9.70251C10.7887 10.089 10.4752 10.402 10.0887 10.402Z" fill="#FFF3CC"/>
<path d="M10.0887 16.9635C9.70217 16.9635 9.38867 16.6505 9.38867 16.264V15.266C9.38867 14.8795 9.70217 14.5665 10.0887 14.5665C10.4752 14.5665 10.7887 14.8795 10.7887 15.266V16.264C10.7887 16.6505 10.4752 16.9635 10.0887 16.9635Z" fill="#FFF3CC"/>
</g>
<defs>
<clipPath id="clip0_773_8539">
<rect width="20" height="20" fill="white"/>
</clipPath>
</defs>
</svg>
