<svg width="81" height="80" viewBox="0 0 81 80" fill="none" xmlns="http://www.w3.org/2000/svg">
<g id="&#240;&#159;&#148;&#147;&#239;&#184;&#143; &#236;&#151;&#180;&#235;&#166;&#176; &#236;&#158;&#144;&#235;&#172;&#188;&#236;&#135;&#160;" clip-path="url(#clip0_964_19585)">
<path id="Vector" d="M57.446 28.4543L51.446 28.4543V20.1703C51.446 14.1423 46.542 9.23828 40.514 9.23828C34.486 9.23828 29.582 14.1423 29.582 20.1703H23.582C23.582 10.8343 31.178 3.23828 40.514 3.23828C49.85 3.23828 57.446 10.8343 57.446 20.1703V28.4543Z" fill="#6B7683"/>
<path id="Vector_2" d="M62.5137 28.1699L18.5137 28.1699C14.0954 28.1699 10.5137 31.7516 10.5137 36.1699L10.5137 66.1699C10.5137 70.5882 14.0954 74.1699 18.5137 74.1699H62.5137C66.9319 74.1699 70.5137 70.5882 70.5137 66.1699V36.1699C70.5137 31.7516 66.9319 28.1699 62.5137 28.1699Z" fill="#AFB7C0"/>
<g id="Group">
<path id="Vector_3" d="M40.5137 52.2539C43.8274 52.2539 46.5137 49.5676 46.5137 46.2539C46.5137 42.9402 43.8274 40.2539 40.5137 40.2539C37.2 40.2539 34.5137 42.9402 34.5137 46.2539C34.5137 49.5676 37.2 52.2539 40.5137 52.2539Z" fill="#313D4C"/>
<path id="Vector_4" d="M40.5137 61.7539C38.8557 61.7539 37.5137 60.4099 37.5137 58.7539V47.9199C37.5137 46.2639 38.8557 44.9199 40.5137 44.9199C42.1717 44.9199 43.5137 46.2639 43.5137 47.9199V58.7539C43.5137 60.4099 42.1717 61.7539 40.5137 61.7539Z" fill="#313D4C"/>
</g>
</g>
<defs>
<clipPath id="clip0_964_19585">
<rect width="80" height="80" fill="white" transform="translate(0.5)"/>
</clipPath>
</defs>
</svg>
