<svg width="20" height="20" viewBox="0 0 20 20" fill="none" xmlns="http://www.w3.org/2000/svg">
<g clip-path="url(#clip0_773_15417)">
<path d="M12.8259 7.97749C12.4879 7.97749 12.2139 7.70349 12.2139 7.36549V4.47999C12.2139 3.25899 11.2209 2.26549 9.99941 2.26549C8.77791 2.26549 7.78491 3.25899 7.78491 4.47999V7.36549C7.78491 7.70349 7.51091 7.97749 7.17291 7.97749C6.83491 7.97749 6.56091 7.70349 6.56091 7.36549V4.47999C6.56091 2.58399 8.10341 1.04199 9.99891 1.04199C11.8944 1.04199 13.4369 2.58399 13.4369 4.47999V7.36549C13.4369 7.70349 13.1629 7.97749 12.8249 7.97749H12.8259Z" fill="#4E5968"/>
<path d="M15.316 4.47998H4.68396C4.28146 4.47998 3.93946 4.77348 3.87796 5.17098L2.27896 15.5255C2.04996 17.008 3.19696 18.346 4.69696 18.346H15.302C16.802 18.346 17.949 17.0085 17.72 15.5255L16.121 5.17098C16.0595 4.77348 15.7175 4.47998 15.315 4.47998H15.316Z" fill="#EF4452"/>
</g>
<defs>
<clipPath id="clip0_773_15417">
<rect width="20" height="20" fill="white"/>
</clipPath>
</defs>
</svg>
