<svg width="20" height="20" viewBox="0 0 20 20" fill="none" xmlns="http://www.w3.org/2000/svg">
<g clip-path="url(#clip0_773_8528)">
<path d="M17.562 12.6935H2.43799V14.854H17.562V12.6935Z" fill="#956759"/>
<path d="M2.93899 8.04199H17.061C17.3375 8.04199 17.562 8.26649 17.562 8.54299V12.6935H2.43799V8.54299C2.43799 8.26649 2.66249 8.04199 2.93899 8.04199Z" fill="#B7B7B7"/>
<path d="M7.29802 6.5235H15.8265C16.3795 6.5235 16.8285 6.9725 16.8285 7.5255V8.042H6.29602V7.5255C6.29602 6.9725 6.74502 6.5235 7.29802 6.5235Z" fill="#D3D3D3"/>
<path d="M4.26201 6.465H5.27951C5.83251 6.465 6.28151 6.914 6.28151 7.467V8.0415H3.26001V7.467C3.26001 6.914 3.70901 6.465 4.26201 6.465Z" fill="#D3D3D3"/>
<path d="M1.937 3.18799H1.251C0.974305 3.18799 0.75 3.41229 0.75 3.68899V16.3115C0.75 16.5882 0.974305 16.8125 1.251 16.8125H1.937C2.21369 16.8125 2.438 16.5882 2.438 16.3115V3.68899C2.438 3.41229 2.21369 3.18799 1.937 3.18799Z" fill="#956759"/>
<path d="M18.749 8.04199H18.063C17.7863 8.04199 17.562 8.2663 17.562 8.54299V16.311C17.562 16.5877 17.7863 16.812 18.063 16.812H18.749C19.0257 16.812 19.25 16.5877 19.25 16.311V8.54299C19.25 8.2663 19.0257 8.04199 18.749 8.04199Z" fill="#956759"/>
</g>
<defs>
<clipPath id="clip0_773_8528">
<rect width="20" height="20" fill="white"/>
</clipPath>
</defs>
</svg>
