<svg width="20" height="20" viewBox="0 0 20 20" fill="none" xmlns="http://www.w3.org/2000/svg">
<g clip-path="url(#clip0_773_8507)">
<path d="M17.735 10.26C17.735 10.575 17.68 10.88 17.575 11.175L17.41 11.545C17.405 11.555 17.4 11.56 17.395 11.57C17.36 11.635 17.32 11.7 17.28 11.765C17.255 11.805 17.23 11.85 17.2 11.895C17.135 11.985 17.07 12.075 16.995 12.165C16.985 12.18 16.975 12.19 16.965 12.2C16.88 12.3 16.795 12.4 16.7 12.495C16.62 12.57 16.53 12.645 16.445 12.72C16.495 12.525 16.53 12.33 16.53 12.13C16.53 10.91 15.53 9.82999 13.985 9.13499L14.455 7.46999C14.48 7.37999 14.455 7.28999 14.405 7.20999L14.86 6.77499C15.67 7.15999 16.345 7.62999 16.84 8.16999C17.41 8.79499 17.735 9.50499 17.735 10.26Z" fill="#3D3D3D"/>
<path d="M12.665 6.06L9.11501 6.795C7.83001 7.015 6.76001 7.87 6.25001 9.035C4.57001 9.72 3.47001 10.85 3.47001 12.13C3.47001 12.33 3.50501 12.525 3.55501 12.72C3.47001 12.645 3.38001 12.57 3.30501 12.495C3.10001 12.29 2.93001 12.07 2.78001 11.845L2.80001 11.89C2.65501 11.675 2.54001 11.46 2.45001 11.23C2.45001 11.225 2.44501 11.22 2.44001 11.21C2.38501 11.065 2.34501 10.915 2.31501 10.76C2.31501 10.7567 2.31335 10.7533 2.31001 10.75C2.28001 10.59 2.26501 10.425 2.26501 10.26C2.26501 9.505 2.59001 8.795 3.16001 8.17C4.46001 6.75 7.03001 5.78 10 5.78C10.94 5.78 11.835 5.885 12.665 6.06Z" fill="#3D3D3D"/>
<path d="M16.531 12.1305C16.531 10.911 15.5305 9.82902 13.983 9.13702L13.5625 10.6145C13.5595 10.8145 13.487 10.994 13.36 11.1545C13.479 11.125 13.6015 11.1055 13.729 11.1055C14.3785 11.1055 14.9345 11.5065 15.1625 12.075C15.2725 12.3495 15.076 12.65 14.78 12.65H12.677C12.3815 12.65 12.1845 12.3495 12.2945 12.075C12.3455 11.9485 12.4145 11.832 12.4955 11.7245C10.3925 12.5565 5.90952 12.112 5.93502 10.4955C5.94302 9.97652 6.05552 9.48352 6.25052 9.03552C4.56952 9.72002 3.46802 10.85 3.46802 12.1305C3.46802 12.3315 3.50302 12.527 3.55502 12.719C3.63702 12.792 3.71152 12.868 3.80102 12.9375C3.80552 12.941 3.80952 12.945 3.81402 12.9485C4.00102 13.093 4.20552 13.229 4.42052 13.359C4.48602 13.3985 4.55752 13.435 4.62552 13.473C4.77602 13.5575 4.93052 13.6395 5.09252 13.717C5.18752 13.7625 5.28502 13.8055 5.38352 13.848C6.67252 14.4065 8.26502 14.7425 9.99902 14.7425C11.7435 14.7425 13.346 14.403 14.6385 13.838C14.7165 13.804 14.795 13.7705 14.871 13.7345C15.1 13.6265 15.3225 13.5135 15.5285 13.391C15.535 13.387 15.541 13.3825 15.5475 13.379C15.7545 13.255 15.9465 13.123 16.128 12.9865C16.169 12.9555 16.208 12.924 16.2475 12.8925C16.3175 12.8365 16.3775 12.7765 16.4435 12.7185C16.4955 12.526 16.5305 12.3305 16.5305 12.13L16.531 12.1305ZM6.46252 12.5365H5.04502C4.83202 12.5365 4.67102 12.322 4.75202 12.125C4.91402 11.731 5.30152 11.4535 5.75402 11.4535C6.20652 11.4535 6.59402 11.731 6.75602 12.125C6.83702 12.322 6.67552 12.5365 6.46252 12.5365ZM8.87852 13.94C8.66552 13.94 8.50452 13.7255 8.58552 13.5285C8.74752 13.1345 9.13502 12.857 9.58752 12.857C10.04 12.857 10.4275 13.1345 10.5895 13.5285C10.6705 13.7255 10.5095 13.94 10.2965 13.94H8.87852Z" fill="#FFC450"/>
<path d="M10.5895 13.528C10.4275 13.134 10.04 12.8565 9.58753 12.8565C9.13503 12.8565 8.74753 13.134 8.58553 13.528C8.50453 13.725 8.66553 13.9395 8.87853 13.9395H10.296C10.509 13.9395 10.67 13.725 10.589 13.528H10.5895Z" fill="#FFE3A0"/>
<path d="M5.75404 11.453C5.30154 11.453 4.91404 11.7305 4.75204 12.1245C4.67104 12.3215 4.83204 12.536 5.04504 12.536H6.46254C6.67554 12.536 6.83654 12.3215 6.75554 12.1245C6.59354 11.7305 6.20604 11.453 5.75354 11.453H5.75404Z" fill="#036D50"/>
<path d="M16.875 5.79502C16.865 6.23502 16.5 6.58502 16.06 6.57502L15.555 6.56502L15.09 6.55502L14.86 6.77502L14.405 7.21002C14.395 7.19502 14.39 7.17502 14.375 7.16002L13.34 6.08002C13.33 6.07002 13.315 6.06502 13.3 6.05502L13.985 5.40002L13.995 4.93002L14.005 4.43502C14.015 3.99002 14.38 3.64502 14.82 3.65002C15.265 3.66002 15.61 4.02502 15.605 4.47002L15.59 4.96502L16.095 4.98002C16.535 4.99002 16.885 5.35502 16.875 5.79502Z" fill="#D5D5D5"/>
<path d="M14.455 7.47002L13.985 9.13502L13.565 10.615C13.56 10.815 13.49 10.995 13.36 11.155C13.01 11.24 12.705 11.445 12.495 11.725C10.395 12.555 5.91004 12.11 5.93504 10.495C5.94504 9.97502 6.05504 9.48502 6.25004 9.03502C6.76004 7.87002 7.83004 7.01502 9.11504 6.79502L12.665 6.06002L13.03 5.98502C13.13 5.96502 13.225 5.99502 13.3 6.05502C13.315 6.06502 13.33 6.07002 13.34 6.08002L14.375 7.16002C14.39 7.17502 14.395 7.19502 14.405 7.21002C14.455 7.29002 14.48 7.38002 14.455 7.47002Z" fill="#F77F00"/>
<path d="M12.4969 11.7245C12.4159 11.832 12.3469 11.9485 12.2959 12.075C12.1859 12.3495 12.3824 12.65 12.6784 12.65H14.7814C15.0769 12.65 15.2739 12.3495 15.1639 12.075C14.9359 11.507 14.3799 11.1055 13.7304 11.1055C13.6024 11.1055 13.4799 11.125 13.3614 11.1545C13.0109 11.241 12.7079 11.4445 12.4979 11.7245H12.4969Z" fill="#C50010"/>
<path d="M17.4095 8.17151H16.8395C17.4095 8.79601 17.7355 9.50651 17.7355 10.262C17.7355 10.575 17.6795 10.88 17.574 11.1745C17.529 11.3005 17.4725 11.4245 17.409 11.546C17.3975 11.5685 17.388 11.591 17.3755 11.613L17.0415 12.3525H17.4095C18.564 12.3525 19.5 11.4165 19.5 10.262C19.5 9.10751 18.564 8.17151 17.4095 8.17151Z" fill="#4E5968"/>
<path d="M2.4515 11.232C2.4485 11.225 2.4445 11.2175 2.442 11.2105C2.387 11.063 2.344 10.9125 2.315 10.7595L2.31 10.7485H2.312V10.75C2.282 10.5895 2.2645 10.427 2.2645 10.2625C2.2645 9.507 2.5905 8.7965 3.1605 8.172H2.5905C1.436 8.172 0.5 9.108 0.5 10.2625C0.5 11.417 1.436 12.353 2.5905 12.353H2.9965L2.7975 11.8885C2.655 11.677 2.537 11.458 2.451 11.2325L2.4515 11.232Z" fill="#4E5968"/>
<path d="M17.396 11.568C17.361 11.634 17.321 11.6985 17.281 11.763C17.2535 11.807 17.228 11.851 17.198 11.894C17.135 11.986 17.0675 12.0765 16.9945 12.1655C16.9845 12.1775 16.9745 12.1895 16.9645 12.2015C16.881 12.301 16.7925 12.399 16.6975 12.494C16.62 12.572 16.5295 12.6445 16.444 12.719C16.378 12.7765 16.318 12.837 16.248 12.893C16.2085 12.9245 16.1695 12.956 16.1285 12.987C15.947 13.124 15.755 13.256 15.548 13.3795C15.5415 13.3835 15.5355 13.388 15.529 13.3915C15.323 13.514 15.1005 13.6265 14.8715 13.735C14.7955 13.771 14.717 13.8045 14.639 13.8385C13.346 14.4035 11.744 14.743 9.99953 14.743C8.26553 14.743 6.67303 14.407 5.38403 13.8485C5.28553 13.806 5.18803 13.7625 5.09303 13.7175C4.93103 13.64 4.77653 13.558 4.62603 13.4735C4.55803 13.4355 4.48653 13.399 4.42103 13.3595C4.20603 13.2295 4.00153 13.0935 3.81453 12.949C3.81003 12.9455 3.80603 12.9415 3.80153 12.938C3.71203 12.8685 3.63753 12.7925 3.55553 12.7195C3.47103 12.6445 3.37953 12.5725 3.30253 12.495C3.09753 12.2895 2.92803 12.071 2.78003 11.847L2.79753 11.8885L2.99653 12.353L3.67553 13.94H3.68453C4.18303 15.868 6.53253 17.3485 10 17.3485C13.4675 17.3485 15.817 15.8685 16.3155 13.94H16.324L17.0415 12.353L17.3755 11.6135L17.396 11.568Z" fill="#4E5968"/>
<path d="M10.42 2.88501C10.275 3.72501 9.48003 4.29001 8.64503 4.14501C8.53003 4.12501 8.42003 4.09001 8.31503 4.04501C8.02503 4.38501 7.57503 4.57001 7.10503 4.48501C6.40003 4.36501 5.92503 3.68501 6.04503 2.97501C6.16503 2.26501 6.84003 1.78501 7.55003 1.91001H7.55503C7.85503 1.33501 8.49503 0.990011 9.17003 1.10501C10.005 1.25001 10.565 2.04501 10.42 2.88501Z" fill="#D5D5D5"/>
<path d="M11.8711 4.45601C12.4806 4.45601 12.9746 3.96001 12.9746 3.34751C12.9746 2.73501 12.4806 2.23901 11.8711 2.23901C11.2616 2.23901 10.7676 2.73501 10.7676 3.34751C10.7676 3.96001 11.2616 4.45601 11.8711 4.45601Z" fill="#D5D5D5"/>
</g>
<defs>
<clipPath id="clip0_773_8507">
<rect width="20" height="20" fill="white"/>
</clipPath>
</defs>
</svg>
