<svg width="196" height="196" viewBox="0 0 196 196" fill="none" xmlns="http://www.w3.org/2000/svg">
<rect width="196" height="196" rx="20" fill="#0582FF"/>
<path d="M171.149 147.918V96.1602H184.402V147.918H171.149Z" fill="white"/>
<path d="M153.924 147.918V140.873L153.018 139.129V126.155C153.018 124.062 152.367 122.458 151.064 121.342C149.809 120.179 147.786 119.598 144.996 119.598C143.182 119.598 141.345 119.9 139.485 120.505C137.625 121.063 136.044 121.853 134.742 122.876L130.277 113.878C132.417 112.483 134.974 111.413 137.95 110.669C140.973 109.879 143.973 109.483 146.949 109.483C153.087 109.483 157.831 110.902 161.179 113.738C164.574 116.529 166.271 120.923 166.271 126.922V147.918H153.924ZM142.764 148.546C139.741 148.546 137.183 148.035 135.091 147.012C132.998 145.988 131.394 144.593 130.277 142.826C129.208 141.059 128.673 139.083 128.673 136.897C128.673 134.572 129.254 132.572 130.417 130.898C131.626 129.178 133.463 127.875 135.928 126.992C138.392 126.062 141.578 125.597 145.484 125.597H154.413V132.502H147.298C145.158 132.502 143.647 132.851 142.764 133.549C141.927 134.246 141.508 135.176 141.508 136.339C141.508 137.502 141.95 138.432 142.833 139.129C143.717 139.827 144.926 140.176 146.461 140.176C147.902 140.176 149.204 139.827 150.367 139.129C151.576 138.385 152.46 137.269 153.018 135.781L154.831 140.664C154.134 143.268 152.762 145.244 150.716 146.593C148.716 147.895 146.065 148.546 142.764 148.546Z" fill="white"/>
<path d="M111.616 148.546C107.43 148.546 103.687 147.709 100.385 146.035C97.1298 144.361 94.5721 142.059 92.712 139.129C90.8518 136.153 89.9218 132.758 89.9218 128.945C89.9218 125.132 90.8518 121.76 92.712 118.831C94.5721 115.901 97.1298 113.622 100.385 111.995C103.687 110.32 107.43 109.483 111.616 109.483C115.894 109.483 119.591 110.39 122.707 112.204C125.822 114.017 128.031 116.575 129.333 119.877L119.079 125.108C118.196 123.341 117.103 122.063 115.801 121.272C114.499 120.435 113.08 120.016 111.546 120.016C110.011 120.016 108.616 120.365 107.36 121.063C106.105 121.76 105.105 122.783 104.361 124.132C103.663 125.434 103.315 127.038 103.315 128.945C103.315 130.898 103.663 132.549 104.361 133.898C105.105 135.246 106.105 136.269 107.36 136.967C108.616 137.664 110.011 138.013 111.546 138.013C113.08 138.013 114.499 137.618 115.801 136.827C117.103 135.99 118.196 134.688 119.079 132.921L129.333 138.153C128.031 141.454 125.822 144.012 122.707 145.826C119.591 147.639 115.894 148.546 111.616 148.546Z" fill="white"/>
<path d="M68.2965 148.546C64.1577 148.546 60.484 147.709 57.2753 146.035C54.0665 144.361 51.5321 142.059 49.672 139.129C47.8583 136.153 46.9515 132.758 46.9515 128.945C46.9515 125.132 47.8583 121.76 49.672 118.831C51.5321 115.901 54.0665 113.622 57.2753 111.995C60.484 110.32 64.1577 109.483 68.2965 109.483C72.4353 109.483 76.1091 110.32 79.3178 111.995C82.573 113.622 85.1074 115.901 86.9211 118.831C88.7347 121.76 89.6415 125.132 89.6415 128.945C89.6415 132.758 88.7347 136.153 86.9211 139.129C85.1074 142.059 82.573 144.361 79.3178 146.035C76.1091 147.709 72.4353 148.546 68.2965 148.546ZM68.2965 138.013C69.8311 138.013 71.1797 137.664 72.3423 136.967C73.5514 136.269 74.5047 135.246 75.2023 133.898C75.8998 132.503 76.2486 130.852 76.2486 128.945C76.2486 127.038 75.8998 125.434 75.2023 124.132C74.5047 122.783 73.5514 121.76 72.3423 121.063C71.1797 120.365 69.8311 120.016 68.2965 120.016C66.8084 120.016 65.4598 120.365 64.2507 121.063C63.0882 121.76 62.1348 122.783 61.3908 124.132C60.6932 125.434 60.3445 127.038 60.3445 128.945C60.3445 130.852 60.6932 132.503 61.3908 133.898C62.1348 135.246 63.0882 136.269 64.2507 136.967C65.4598 137.664 66.8084 138.013 68.2965 138.013Z" fill="white"/>
<path d="M11 147.918V99.0898H24.8115V136.967H48.1096V147.918H11Z" fill="white"/>
<path d="M165.971 72.1471L166.691 41.0074L182.367 42.6761L176.445 73.262L165.971 72.1471ZM169.294 91.0201C166.982 90.774 165.162 89.8554 163.835 88.2644C162.508 86.6734 161.95 84.8836 162.162 82.8952C162.378 80.8606 163.298 79.2515 164.92 78.068C166.548 76.8383 168.517 76.3465 170.829 76.5926C173.142 76.8387 174.941 77.7317 176.226 79.2716C177.563 80.7701 178.124 82.5367 177.907 84.5713C177.695 86.5597 176.773 88.1919 175.141 89.4679C173.555 90.7488 171.606 91.2662 169.294 91.0201Z" fill="white"/>
<path d="M117.687 104.12C115.739 103.667 113.842 102.892 111.997 101.794C110.186 100.752 108.786 99.5903 107.795 98.3093L114.381 90.3166C114.993 91.1751 115.755 91.9015 116.667 92.4957C117.614 93.1457 118.586 93.5866 119.582 93.8185C120.986 94.1451 122.17 94.0863 123.132 93.6418C124.095 93.1974 125.029 92.3643 125.934 91.1425L128.628 87.2574L129.948 86.2037L149.641 58.1994L161.938 61.0605L137.125 95.6799C135.119 98.5554 133.073 100.681 130.986 102.058C128.934 103.49 126.804 104.332 124.598 104.582C122.436 104.843 120.132 104.689 117.687 104.12ZM125.559 93.0606L118.253 50.8965L131.501 53.9789L136.535 86.5188L125.559 93.0606Z" fill="white"/>
<path d="M95.5421 88.3751C91.1083 87.8539 87.3265 86.5666 84.1966 84.5131C81.1183 82.4188 78.8264 79.8082 77.321 76.6814C75.8672 73.5138 75.3602 70.0595 75.7999 66.3185C76.2396 62.5775 77.508 59.3553 79.605 56.6519C81.7537 53.9078 84.4933 51.9121 87.8239 50.6647C91.16 49.3712 94.7909 48.9551 98.7166 49.4166C102.411 49.8509 105.693 51.0092 108.562 52.8916C111.437 54.7278 113.604 57.2066 115.063 60.328C116.522 63.4494 117.008 67.0884 116.519 71.2451C116.465 71.707 116.379 72.2354 116.262 72.8304C116.146 73.4253 116.034 73.9741 115.929 74.4768L86.2083 70.9834L87.0226 64.0557L109.746 66.7265L104.53 68.08C104.777 66.3766 104.627 64.8607 104.081 63.5322C103.581 62.2092 102.771 61.1308 101.652 60.2968C100.579 59.4683 99.2569 58.9618 97.6866 58.7772C96.1163 58.5927 94.69 58.7762 93.4078 59.3278C92.1717 59.8849 91.1544 60.772 90.3558 61.9892C89.5626 63.1602 89.0656 64.6001 88.8647 66.309L88.6286 68.3181C88.4115 70.1655 88.5937 71.8023 89.1752 73.2285C89.8029 74.6602 90.7892 75.8296 92.1341 76.7369C93.4844 77.598 95.1526 78.1452 97.1385 78.3786C98.9859 78.5958 100.586 78.5263 101.939 78.1703C103.344 77.7735 104.758 77.0969 106.181 76.1404L112.262 84.1596C110.227 85.9339 107.831 87.1974 105.074 87.9503C102.322 88.6569 99.1446 88.7985 95.5421 88.3751Z" fill="white"/>
<path d="M52.9104 45.7362L66.4167 42.8489L76.6244 90.5984L63.1181 93.4857L52.9104 45.7362ZM44.7004 97.423L31.1941 100.31L20.9865 52.5608L34.4927 49.6735L44.7004 97.423ZM60.0921 74.6593L39.7644 79.0048L37.3729 67.8178L57.7006 63.4722L60.0921 74.6593Z" fill="white"/>
</svg>
